<?xml version="1.0" standalone="no"?><!DOCTYPE svg PUBLIC "-//W3C//DTD SVG 1.1//EN" "http://www.w3.org/Graphics/SVG/1.1/DTD/svg11.dtd"><svg t="1530758734886" class="icon" style="" viewBox="0 0 1147 1024" version="1.1" xmlns="http://www.w3.org/2000/svg" p-id="951" xmlns:xlink="http://www.w3.org/1999/xlink" width="224.0234375" height="200"><defs><style type="text/css"></style></defs><path d="M88.576 237.906767L692.966977 573.593985a40.03609 40.03609 0 0 0 35.416542 0l384.962406-170.923308a36.186466 36.186466 0 0 0 21.557895-30.796993 35.416541 35.416541 0 0 0-18.478196-32.336842L514.344421 4.619549a40.03609 40.03609 0 0 0-35.416541 0l-384.962406 170.923308a36.186466 36.186466 0 0 0-21.557895 30.796993 35.416541 35.416541 0 0 0 16.168421 31.566917zM493.556451 76.992481l527.398496 291.031579-307.969924 133.966917-523.548873-291.031579z" fill="#dbdbdb" p-id="952"></path><path d="M54.699308 448.866165l630.568421 348.77594a41.57594 41.57594 0 0 0 36.186466 0l402.670677-177.852631a37.726316 37.726316 0 0 0 23.097745-32.336842 36.956391 36.956391 0 0 0-19.248121-33.876692L1096.407579 538.947368a40.806015 40.806015 0 0 0-53.894737 13.088722 35.416541 35.416541 0 0 0-4.619549 26.177444l-331.067669 146.285714-557.425564-307.969925A35.416541 35.416541 0 0 0 154.019609 384.962406a40.03609 40.03609 0 0 0-52.354887-17.708271L57.779008 384.962406a37.726316 37.726316 0 0 0-22.32782 32.336842 36.956391 36.956391 0 0 0 19.24812 31.566917z" fill="#dbdbdb" p-id="953"></path><path d="M1127.204571 769.924812l-32.336842-17.708271a42.345865 42.345865 0 0 0-55.434586 13.858647 36.956391 36.956391 0 0 0-4.619549 26.947368L692.966977 941.618045 118.603068 624.409023a36.186466 36.186466 0 0 0 0-33.106767 41.57594 41.57594 0 0 0-53.894737-18.478196l-41.57594 18.478196a38.496241 38.496241 0 0 0-23.097744 32.336842 38.496241 38.496241 0 0 0 20.018045 35.416541l650.586466 359.554887a42.345865 42.345865 0 0 0 37.726316 0l415.759398-183.242105a38.496241 38.496241 0 0 0 23.097745-33.106767 38.496241 38.496241 0 0 0-20.018046-32.336842z" fill="#dbdbdb" p-id="954"></path></svg>